nColumns=19
nRows=80
DataType=double
version=3
OpenSimVersion=4.1
endheader
time	ground_force_calcn_r_vx	ground_force_calcn_r_vy	ground_force_calcn_r_vz	ground_force_calcn_r_px	ground_force_calcn_r_py	ground_force_calcn_r_pz	ground_force_calcn_r_mx	ground_force_calcn_r_my	ground_force_calcn_r_mz	ground_force_calcn_l_vx	ground_force_calcn_l_vy	ground_force_calcn_l_vz	ground_force_calcn_l_px	ground_force_calcn_l_py	ground_force_calcn_l_pz	ground_force_calcn_l_mx	ground_force_calcn_l_my	ground_force_calcn_l_mz
0.54	-33.4304	85.9288	-6.19355	0.964433	0	-0.247285	-0.0641363	0.164854	-0.0118823	0	0	0	0	0	0	0	0	0
0.55	-42.3545	208.006	-8.19949	0.888641	0	-0.285656	0.113333	-0.556587	0.0219403	0	0	0	0	0	0	0	0	0
0.56	-40.8329	425.373	1.15994	0.874845	0	-0.289963	0.028799	-0.300011	-0.000818095	0	0	0	0	0	0	0	0	0
0.57	-52.8445	698.008	25.675	0.869461	0	-0.289888	-0.0248348	0.328036	0.0120662	0	0	0	0	0	0	0	0	0
0.58	-102.608	931.895	46.798	0.865464	0	-0.288621	-0.0748418	0.679718	0.0341342	0	0	0	0	0	0	0	0	0
0.59	-169.196	1080.51	37.5877	0.858218	0	-0.286776	-0.127294	0.812922	0.0282791	0	0	0	0	0	0	0	0	0
0.6	-209.556	1191.45	3.69984	0.84354	0	-0.284427	-0.179847	1.02254	0.00317531	0	0	0	0	0	0	0	0	0
0.61	-205.141	1315.75	-17.1485	0.820339	0	-0.28161	-0.199322	1.27843	-0.016662	0	0	0	0	0	0	0	0	0
0.62	-174.723	1444.95	-16.9763	0.791694	0	-0.278606	-0.150565	1.24517	-0.0146292	0	0	0	0	0	0	0	0	0
0.63	-137.988	1540.37	-24.6108	0.761512	0	-0.275808	-0.0651168	0.726902	-0.0116139	0	0	0	0	0	0	0	0	0
0.64	-97.4918	1585.66	-45.1386	0.731337	0	-0.273385	0.00471172	-0.0766342	0.00218152	0	0	0	0	0	0	0	0	0
0.65	-50.685	1593.46	-55.2765	0.70064	0	-0.271365	0.025499	-0.801651	0.0278089	0	0	0	0	0	0	0	0	0
0.66	1.1677	1571.75	-50.9992	0.668375	0	-0.269864	-0.000971811	-1.30807	0.0424436	0	0	0	0	0	0	0	0	0
0.67	56.0038	1513.03	-44.61	0.633997	0	-0.2691	-0.0680781	-1.83924	0.0542279	0	0	0	0	0	0	0	0	0
0.68	109.392	1414.09	-35.6745	0.597968	0	-0.269195	-0.218129	-2.81972	0.0711353	0	0	0	0	0	0	0	0	0
0.69	155.065	1281.33	-19.6254	0.56166	0	-0.27004	-0.53025	-4.38156	0.0671097	0	0	0	0	0	0	0	0	0
0.7	188.335	1119.65	-0.666118	0.526565	0	-0.271329	-1.00796	-5.99232	0.00356504	0	0	0	0	0	0	0	0	0
0.71	203.81	933.178	12.9938	0.493334	0	-0.272572	-1.45659	-6.66926	-0.0928646	0	0	0	0	0	0	0	0	0
0.72	197.357	731.655	17.7076	0.461383	0	-0.273093	-1.56213	-5.79123	-0.14016	0	0	0	0	0	0	0	0	0
0.73	174.463	532.59	14.9285	0.429138	0	-0.272075	-1.23408	-3.76732	-0.105598	0	0	0	0	0	0	0	0	0
0.74	144.616	356.042	9.85813	0.394248	0	-0.268586	-0.762406	-1.87703	-0.0519714	0	0	0	0	0	0	0	0	0
0.75	110.182	214.004	6.96701	0.352091	0	-0.2615	-0.639038	-1.24119	-0.0404076	0	0	0	0	0	0	0	0	0
0.76	71.8434	111.45	5.66143	0.290361	0	-0.247305	-1.12734	-1.74883	-0.0888371	0	0	0	0	0	0	0	0	0
0.77	0	0	0	0	0	0	0	0	0	0	0	0	0	0	0	0	0	0
0.78	0	0	0	0	0	0	0	0	0	0	0	0	0	0	0	0	0	0
0.79	0	0	0	0	0	0	0	0	0	0	0	0	0	0	0	0	0	0
0.8	0	0	0	0	0	0	0	0	0	0	0	0	0	0	0	0	0	0
0.81	0	0	0	0	0	0	0	0	0	0	0	0	0	0	0	0	0	0
0.82	0	0	0	0	0	0	0	0	0	0	0	0	0	0	0	0	0	0
0.83	0	0	0	0	0	0	0	0	0	0	0	0	0	0	0	0	0	0
0.84	0	0	0	0	0	0	0	0	0	0	0	0	0	0	0	0	0	0
0.85	0	0	0	0	0	0	0	0	0	-16.2477	55.136	-3.60149	1.08935	0	-0.293689	-0.581628	1.97374	-0.128925
0.86	0	0	0	0	0	0	0	0	0	-27.0223	154.408	-3.21531	0.938563	0	-0.345216	0.075711	-0.432621	0.00900864
0.87	0	0	0	0	0	0	0	0	0	-27.3208	343.488	6.2114	0.924936	0	-0.345017	0.153016	-1.92378	-0.0347883
0.88	0	0	0	0	0	0	0	0	0	-31.8128	596.755	20.4908	0.915849	0	-0.344759	0.117734	-2.20849	-0.0758329
0.89	0	0	0	0	0	0	0	0	0	-72.6796	835.473	22.31	0.908303	0	-0.344914	0.178721	-2.05445	-0.054861
0.9	0	0	0	0	0	0	0	0	0	-150.117	1001.23	12.7967	0.8998	0	-0.345592	0.298855	-1.99326	-0.0254758
0.91	0	0	0	0	0	0	0	0	0	-219.945	1115.78	8.4876	0.886635	0	-0.346477	0.409973	-2.07978	-0.0158207
0.92	0	0	0	0	0	0	0	0	0	-240.677	1237.08	15.88	0.866453	0	-0.347249	0.426012	-2.1897	-0.0281085
0.93	0	0	0	0	0	0	0	0	0	-219.29	1371.55	31.2576	0.840659	0	-0.347862	0.350308	-2.19101	-0.0499329
0.94	0	0	0	0	0	0	0	0	0	-187.546	1480.52	46.058	0.812471	0	-0.348547	0.252803	-1.99567	-0.0620838
0.95	0	0	0	0	0	0	0	0	0	-155.103	1538.99	54.477	0.783549	0	-0.349467	0.159815	-1.58575	-0.0561322
0.96	0	0	0	0	0	0	0	0	0	-116.873	1553.75	59.3896	0.753737	0	-0.35044	0.076672	-1.0193	-0.0389612
0.97	0	0	0	0	0	0	0	0	0	-70.6563	1537.77	64.9295	0.722568	0	-0.35104	0.0192502	-0.418963	-0.0176899
0.98	0	0	0	0	0	0	0	0	0	-18.3004	1495.51	63.4662	0.690178	0	-0.350877	-0.00114297	0.0934038	0.00396385
0.99	0	0	0	0	0	0	0	0	0	37.5999	1424.55	49.8077	0.657222	0	-0.34975	0.0114216	0.432733	0.0151299
1	0	0	0	0	0	0	0	0	0	89.626	1321.12	30.524	0.6243	0	-0.34768	0.0362239	0.533952	0.0123368
1.01	0	0	0	0	0	0	0	0	0	131.551	1185.6	12.1608	0.591433	0	-0.344903	0.0429167	0.386785	0.0039673
1.02	0	0	0	0	0	0	0	0	0	163.122	1022.77	-3.1646	0.558096	0	-0.341817	0.0180674	0.113281	-0.00035051
1.03	0	0	0	0	0	0	0	0	0	180.365	842.237	-14.0042	0.523735	0	-0.338827	-0.0125341	-0.0585296	0.000973192
1.04	0	0	0	0	0	0	0	0	0	177.623	657.296	-18.8317	0.488224	0	-0.336162	0.00631464	0.0233674	-0.000669483
1.05	0	0	0	0	0	0	0	0	0	159.828	481.002	-18.8715	0.451818	0	-0.333727	0.0850865	0.256068	-0.0100465
1.06	0	0	0	0	0	0	0	0	0	136.459	324.426	-16.3187	0.414802	0	-0.331067	0.129952	0.308956	-0.0155405
1.07	0	0	0	0	0	0	0	0	0	107.354	196.397	-12.5427	0.376978	0	-0.327322	-0.0261584	-0.0478552	0.00305621
1.08	0	0	0	0	0	0	0	0	0	70.6342	104.229	-8.59199	0.338847	0	-0.319397	-0.407674	-0.601569	0.0495898
1.09	0	0	0	0	0	0	0	0	0	0	0	0	0	0	0	0	0	0
1.1	0	0	0	0	0	0	0	0	0	0	0	0	0	0	0	0	0	0
1.11	0	0	0	0	0	0	0	0	0	0	0	0	0	0	0	0	0	0
1.12	0	0	0	0	0	0	0	0	0	0	0	0	0	0	0	0	0	0
1.13	0	0	0	0	0	0	0	0	0	0	0	0	0	0	0	0	0	0
1.14	0	0	0	0	0	0	0	0	0	0	0	0	0	0	0	0	0	0
1.15	0	0	0	0	0	0	0	0	0	0	0	0	0	0	0	0	0	0
1.16	0	0	0	0	0	0	0	0	0	0	0	0	0	0	0	0	0	0
1.17	-25.28	87.3576	-7.71729	0.939688	0	-0.216611	-0.0823604	0.284605	-0.0251424	0	0	0	0	0	0	0	0	0
1.18	-33.5075	230.706	-16.556	0.902777	0	-0.269422	-0.0267185	0.183962	-0.0132015	0	0	0	0	0	0	0	0	0
1.19	-39.7668	486.154	-16.8275	0.896619	0	-0.274475	-0.0397416	0.485846	-0.0168168	0	0	0	0	0	0	0	0	0
1.2	-61.9727	797.028	4.99743	0.892908	0	-0.275365	-0.0822985	1.05844	0.00663649	0	0	0	0	0	0	0	0	0
1.21	-115.048	1042.24	35.7656	0.888287	0	-0.27504	-0.142924	1.29478	0.0444318	0	0	0	0	0	0	0	0	0
1.22	-179.647	1173.87	39.2482	0.879505	0	-0.273988	-0.154238	1.00784	0.033697	0	0	0	0	0	0	0	0	0
1.23	-217.952	1261.09	7.89445	0.863208	0	-0.272137	-0.0749741	0.433806	0.00271564	0	0	0	0	0	0	0	0	0
1.24	-211.288	1361.04	-16.1792	0.838705	0	-0.269423	0.0355414	-0.228945	0.00272155	0	0	0	0	0	0	0	0	0
1.25	-179.191	1460.45	-16.6903	0.809106	0	-0.266116	0.116175	-0.946858	0.0108209	0	0	0	0	0	0	0	0	0
1.26	-138.876	1523.32	-27.7066	0.778181	0	-0.262728	0.150422	-1.64997	0.0300101	0	0	0	0	0	0	0	0	0
1.27	-93.0133	1542.71	-57.4124	0.747411	0	-0.259643	0.130939	-2.17174	0.0808217	0	0	0	0	0	0	0	0	0
1.28	-44.2836	1534.2	-72.5131	0.7163	0	-0.257057	0.0703087	-2.43583	0.115128	0	0	0	0	0	0	0	0	0
1.29	5.80758	1502.32	-64.8252	0.683754	0	-0.25519	-0.010025	-2.59329	0.111901	0	0	0	0	0	0	0	0	0
1.3	58.3019	1437.39	-53.1851	0.649173	0	-0.254333	-0.118696	-2.92636	0.108279	0	0	0	0	0	0	0	0	0
1.31	107.899	1337.2	-40.6846	0.613067	0	-0.254621	-0.294135	-3.64524	0.110908	0	0	0	0	0	0	0	0	0
1.32	148.696	1208.99	-23.4002	0.576917	0	-0.255873	-0.576729	-4.68918	0.0907597	0	0	0	0	0	0	0	0	0
1.33	178.275	1057.38	-5.13457	0.542289	0	-0.257648	-0.949086	-5.62921	0.027335	0	0	0	0	0	0	0	0	0
